<?xml version="1.0" encoding="utf-8"?>
<!-- Generator: Adobe Illustrator 22.1.0, SVG Export Plug-In . SVG Version: 6.00 Build 0)  -->
<svg version="1.1" id="Layer_1" xmlns="http://www.w3.org/2000/svg" xmlns:xlink="http://www.w3.org/1999/xlink" x="0px" y="0px"
	 viewBox="0 0 282.4 300" style="enable-background:new 0 0 282.4 300;" xml:space="preserve">
<style type="text/css">
	.st0{fill:#FCFF55;}
</style>
<g>
	<polygon class="st0" points="88.2,17.7 123.5,17.7 131,30.5 134.6,73.3 147.4,78.6 224.2,80.3 229.5,88.3 262.6,102.9 264.8,105.9 
		272.7,133.8 271.8,187.2 264.8,194.2 252,228.2 247.1,229.6 237.4,262.7 220.2,274.6 211.8,264.9 202.5,260 194.2,264.9 
		175.2,275.9 97.5,272.4 93.5,256 88.2,247.2 79.8,237.9 70.5,229.6 52.9,211.9 35.2,176.6 17.6,158.9 6.1,129.3 17.6,123.6 
		38.8,113.9 52.9,123.6 73.2,135.1 78.1,118.8 82.5,25.6 	"/>
	<rect x="35.2" y="194.2" width="17.7" height="17.7"/>
	<rect x="141.2" y="194.2" width="17.7" height="17.7"/>
	<rect x="176.5" y="194.2" width="17.7" height="17.7"/>
	<rect x="52.9" y="211.9" width="17.7" height="17.7"/>
	<rect x="141.2" y="211.9" width="17.7" height="17.7"/>
	<rect x="176.5" y="211.9" width="17.7" height="17.7"/>
	<rect x="70.5" y="229.6" width="17.7" height="17.7"/>
	<rect x="88.2" y="247.2" width="17.7" height="17.7"/>
	<rect x="194.2" y="247.2" width="17.7" height="17.7"/>
	<rect x="88.2" y="264.9" width="17.7" height="17.7"/>
	<rect x="105.9" y="264.9" width="17.7" height="17.7"/>
	<rect x="123.5" y="264.9" width="17.7" height="17.7"/>
	<rect x="141.2" y="264.9" width="17.7" height="17.7"/>
	<rect x="158.8" y="264.9" width="17.7" height="17.7"/>
	<rect x="176.5" y="264.9" width="17.7" height="17.7"/>
	<rect x="211.8" y="194.2" width="17.7" height="17.7"/>
	<rect x="247.1" y="194.2" width="17.7" height="17.7"/>
	<rect x="211.8" y="211.9" width="17.7" height="17.7"/>
	<rect x="247.1" y="211.9" width="17.7" height="17.7"/>
	<rect x="229.5" y="229.6" width="17.7" height="17.7"/>
	<rect x="229.5" y="247.2" width="17.7" height="17.7"/>
	<rect x="211.8" y="264.9" width="17.7" height="17.7"/>
	<rect x="229.5" y="264.9" width="17.7" height="17.7"/>
	<rect x="88.2" width="17.7" height="17.7"/>
	<rect x="105.9" width="17.7" height="17.7"/>
	<rect x="70.5" y="17.7" width="17.7" height="17.7"/>
	<rect x="123.5" y="17.7" width="17.7" height="17.7"/>
	<rect x="70.5" y="35.3" width="17.7" height="17.7"/>
	<rect x="123.5" y="35.3" width="17.7" height="17.7"/>
	<rect x="70.5" y="53" width="17.7" height="17.7"/>
	<rect x="123.5" y="53" width="17.7" height="17.7"/>
	<rect x="70.5" y="70.6" width="17.7" height="17.7"/>
	<rect x="123.5" y="70.6" width="17.7" height="17.7"/>
	<rect x="141.2" y="70.6" width="17.7" height="17.7"/>
	<rect x="158.8" y="70.6" width="17.7" height="17.7"/>
	<rect x="176.5" y="70.6" width="17.7" height="17.7"/>
	<rect x="194.2" y="70.6" width="17.7" height="17.7"/>
	<rect x="70.5" y="88.3" width="17.7" height="17.7"/>
	<rect x="123.5" y="88.3" width="17.7" height="17.7"/>
	<rect x="194.2" y="88.3" width="17.7" height="17.7"/>
	<rect x="17.6" y="105.9" width="17.7" height="17.7"/>
	<rect x="35.2" y="105.9" width="17.7" height="17.7"/>
	<rect x="70.5" y="105.9" width="17.7" height="17.7"/>
	<rect x="123.5" y="105.9" width="17.7" height="17.7"/>
	<rect x="194.2" y="105.9" width="17.7" height="17.7"/>
	<rect x="-0.1" y="123.6" width="17.7" height="17.7"/>
	<rect x="52.9" y="123.6" width="17.7" height="17.7"/>
	<rect x="70.5" y="123.6" width="17.7" height="17.7"/>
	<rect x="-0.1" y="141.3" width="17.7" height="17.7"/>
	<rect x="70.5" y="141.3" width="17.7" height="17.7"/>
	<rect x="17.6" y="158.9" width="17.7" height="17.7"/>
	<rect x="70.5" y="158.9" width="17.7" height="17.7"/>
	<rect x="141.2" y="158.9" width="17.7" height="17.7"/>
	<rect x="176.5" y="158.9" width="17.7" height="17.7"/>
	<rect x="35.2" y="176.6" width="17.7" height="17.7"/>
	<rect x="141.2" y="176.6" width="17.7" height="17.7"/>
	<rect x="176.5" y="176.6" width="17.7" height="17.7"/>
	<rect x="211.8" y="70.6" width="17.7" height="17.7"/>
	<rect x="229.5" y="88.3" width="17.7" height="17.7"/>
	<rect x="247.1" y="88.3" width="17.7" height="17.7"/>
	<rect x="229.5" y="105.9" width="17.7" height="17.7"/>
	<rect x="264.8" y="105.9" width="17.7" height="17.7"/>
	<rect x="264.8" y="123.6" width="17.7" height="17.7"/>
	<rect x="264.8" y="141.3" width="17.7" height="17.7"/>
	<rect x="211.8" y="158.9" width="17.7" height="17.7"/>
	<rect x="264.8" y="158.9" width="17.7" height="17.7"/>
	<rect x="211.8" y="176.6" width="17.7" height="17.7"/>
	<rect x="264.8" y="176.6" width="17.7" height="17.7"/>
</g>
</svg>
