<svg xmlns="http://www.w3.org/2000/svg" viewBox="0 0 170 66.36"><title>UXD_logo_small_v0.1</title><path d="M594.06,8.25a2.76,2.76,0,0,1,.79,2V48.84a24.69,24.69,0,0,1-3.26,12.49,24.42,24.42,0,0,1-42.41,0,24.59,24.59,0,0,1-3.26-12.49V10.26a2.72,2.72,0,0,1,.79-2,3,3,0,0,1,2.19-.79,2.75,2.75,0,0,1,2,.79,2.65,2.65,0,0,1,.84,2V48.84a19.05,19.05,0,0,0,9.36,16.55,18.59,18.59,0,0,0,18.83,0,19.24,19.24,0,0,0,6.9-7,18.65,18.65,0,0,0,2.56-9.6V10.26a2.81,2.81,0,0,1,.75-2,2.53,2.53,0,0,1,1.95-.79A2.72,2.72,0,0,1,594.06,8.25Z" transform="translate(-545.92 -7.18)" style="fill:#1d1d1b"/><path d="M652.45,68.51a3.05,3.05,0,0,1,.65,1.68,2.66,2.66,0,0,1-.88,2.09,2.94,2.94,0,0,1-2,.79A2.57,2.57,0,0,1,648,71.86L627.84,44.55l-20,27.22a2.53,2.53,0,0,1-2.23,1.3,2.31,2.31,0,0,1-1.82-.79,2.53,2.53,0,0,1-.7-1.72,3.31,3.31,0,0,1,.65-1.87l21-28.52L603.61,11.65A2.47,2.47,0,0,1,603,10a2.61,2.61,0,0,1,.88-2,2.84,2.84,0,0,1,2-.84,2.9,2.9,0,0,1,2.33,1.12l20,27.31L648.16,8.39a3,3,0,0,1,2.24-1.21,2.78,2.78,0,0,1,1.91.7,2.2,2.2,0,0,1,.79,1.72,3.48,3.48,0,0,1-.65,1.77L631.48,40Z" transform="translate(-545.92 -7.18)" style="fill:#1d1d1b"/><path d="M703.76,11.89a26.82,26.82,0,0,1,9.13,11.83,42.86,42.86,0,0,1,3,16.36,43.25,43.25,0,0,1-3,16.59,26.28,26.28,0,0,1-9.13,11.7q-6.1,4.34-15.06,4.33H664.94a2.7,2.7,0,0,1-2.8-2.79V10.26a2.7,2.7,0,0,1,2.8-2.8H688.7Q697.66,7.46,703.76,11.89Zm.69,47.81q5.5-7.5,5.5-19.62a37.88,37.88,0,0,0-2.33-13.65,21.34,21.34,0,0,0-7.31-9.79A20.6,20.6,0,0,0,687.77,13H668V67.2h19.76Q699,67.2,704.45,59.7Z" transform="translate(-545.92 -7.18)" style="fill:#1d1d1b"/></svg>